<svg width="27" height="27" viewBox="0 0 27 27" fill="none" xmlns="http://www.w3.org/2000/svg">
<path fill-rule="evenodd" clip-rule="evenodd" d="M1.7148 11.7214C4.62787 18.0661 9.81091 23.1106 16.2549 25.846L17.3916 26.3524C19.8231 27.4358 22.6812 26.6663 24.2402 24.5086L26.1518 21.863C26.9691 20.7318 26.7584 19.1589 25.6723 18.2826L22.3351 15.5904C21.1739 14.6536 19.4663 14.8718 18.5779 16.0705L17.8337 17.0748C14.5421 15.3784 11.8535 12.6898 10.1572 9.39825L11.1614 8.65402C12.3602 7.76566 12.5784 6.05806 11.6415 4.89681L8.94896 1.55924C8.07297 0.473403 6.50063 0.262496 5.36944 1.07911L2.70951 2.99934C0.537534 4.56732 -0.227358 7.44943 0.881292 9.88805L1.71305 11.7176L1.7148 11.7214ZM17.1428 23.7785C11.2122 21.2637 6.44144 16.6224 3.76047 10.7846L3.75957 10.7826L2.92956 8.95687C2.26437 7.49369 2.7233 5.76442 4.02649 4.82364L6.68643 2.90341C6.84802 2.78675 7.07264 2.81688 7.19779 2.972L9.89035 6.30956C10.0242 6.47546 9.99301 6.7194 9.82176 6.84631L8.06919 8.1451C7.64357 8.46052 7.49567 9.03015 7.71409 9.51279C9.72099 13.9474 13.2846 17.511 17.7192 19.5179C18.2018 19.7363 18.7714 19.5884 19.0868 19.1628L20.3857 17.4102C20.5126 17.2389 20.7565 17.2078 20.9224 17.3416L24.2595 20.0338C24.4147 20.159 24.4448 20.3837 24.328 20.5453L22.4164 23.1909C21.481 24.4855 19.7662 24.9472 18.3073 24.2972L17.1615 23.7865L17.1428 23.7785Z" fill="black"/>
<path d="M15.6251 9.49998C15.6251 9.79835 15.7436 10.0845 15.9546 10.2955C16.1655 10.5065 16.4517 10.625 16.7501 10.625H22.4927C23.114 10.625 23.6177 10.1213 23.6177 9.49998C23.6177 8.87866 23.114 8.37498 22.4927 8.37498H19.466L24.2046 3.63647C24.6439 3.19713 24.6439 2.48482 24.2046 2.04548C23.7652 1.60614 23.0529 1.60614 22.6136 2.04548L17.8751 6.78399V3.75734C17.8751 3.13602 17.3714 2.63234 16.7501 2.63234C16.1287 2.63234 15.6251 3.13602 15.6251 3.75734V9.49998Z" fill="black"/>
</svg>
