<svg width="36" height="36" viewBox="0 0 36 36" fill="none" xmlns="http://www.w3.org/2000/svg">
<path fill-rule="evenodd" clip-rule="evenodd" d="M9.375 8.25C9.375 5.55761 11.5576 3.375 14.25 3.375C15.7578 3.375 17.1058 4.05955 18 5.13482C18.8942 4.05955 20.2422 3.375 21.75 3.375C24.4424 3.375 26.625 5.55761 26.625 8.25C26.625 9.21648 26.3438 10.1173 25.8586 10.875H27C29.2782 10.875 31.125 12.7218 31.125 15V18C31.125 19.2062 30.3114 20.2224 29.203 20.5298C29.4191 23.2697 29.294 26.0275 28.8292 28.7396C28.5517 30.3591 27.2364 31.5997 25.6035 31.7822L24.2318 31.9355C20.0902 32.3984 15.9098 32.3984 11.7682 31.9355L10.3965 31.7822C8.76359 31.5997 7.44829 30.3591 7.17077 28.7396C6.70603 26.0275 6.58086 23.2697 6.79696 20.5298C5.6886 20.2224 4.875 19.2062 4.875 18V15C4.875 12.7218 6.72183 10.875 9 10.875H10.1414C9.65625 10.1173 9.375 9.21648 9.375 8.25ZM16.875 8.25C16.875 6.80025 15.6997 5.625 14.25 5.625C12.8003 5.625 11.625 6.80025 11.625 8.25C11.625 9.69975 12.8003 10.875 14.25 10.875C15.6997 10.875 16.875 9.69975 16.875 8.25ZM21.75 10.875C23.1997 10.875 24.375 9.69975 24.375 8.25C24.375 6.80025 23.1997 5.625 21.75 5.625C20.3003 5.625 19.125 6.80025 19.125 8.25C19.125 9.69975 20.3003 10.875 21.75 10.875ZM7.125 15C7.125 13.9645 7.96447 13.125 9 13.125H16.875V18.375H7.5C7.29289 18.375 7.125 18.2071 7.125 18V15ZM19.125 20.625H26.9535C27.1639 23.2059 27.0494 25.8045 26.6116 28.3596C26.5033 28.9911 25.9904 29.475 25.3536 29.5461L23.9819 29.6994C22.3674 29.8799 20.7468 29.987 19.125 30.0209V20.625ZM19.125 18.375H28.5C28.7071 18.375 28.875 18.2071 28.875 18V15C28.875 13.9645 28.0355 13.125 27 13.125H19.125V18.375ZM16.875 20.625V30.0209C15.2532 29.987 13.6326 29.8799 12.0181 29.6994L10.6464 29.5461C10.0096 29.475 9.49667 28.9911 9.38845 28.3596C8.95061 25.8045 8.8361 23.2059 9.04655 20.625H16.875Z" fill="black"/>
</svg>
