<svg width="36" height="36" viewBox="0 0 36 36" fill="none" xmlns="http://www.w3.org/2000/svg">
<path fill-rule="evenodd" clip-rule="evenodd" d="M14.6004 4.0482C16.8434 3.58859 19.1564 3.58859 21.3994 4.0482C22.3696 4.24699 23.1167 5.02361 23.2778 6.00079L23.3591 6.49428C24.0418 10.6368 24.0418 14.8632 23.3591 19.0057L23.2778 19.4992C23.1167 20.4764 22.3696 21.253 21.3994 21.4518C19.1564 21.9114 16.8434 21.9114 14.6004 21.4518C13.6301 21.253 12.8831 20.4764 12.722 19.4992L12.6407 19.0057C11.958 14.8632 11.958 10.6368 12.6407 6.49428L12.722 6.00079C12.8831 5.02361 13.6301 4.24699 14.6004 4.0482ZM20.9478 6.2524C19.0027 5.85385 16.9971 5.85385 15.052 6.2524C14.9952 6.26403 14.9515 6.30948 14.9421 6.36667L14.8607 6.86016C14.218 10.7604 14.218 14.7396 14.8607 18.6398L14.9421 19.1333C14.9515 19.1905 14.9952 19.236 15.052 19.2476C16.9971 19.6461 19.0027 19.6461 20.9478 19.2476C21.0046 19.236 21.0483 19.1905 21.0577 19.1333L21.139 18.6398C21.7818 14.7396 21.7818 10.7604 21.139 6.86016L21.0577 6.36667C21.0483 6.30948 21.0046 6.26403 20.9478 6.2524Z" fill="black"/>
<path d="M7.34206 16.8861C7.95724 16.799 8.5266 17.227 8.61377 17.8422L9.28953 22.6111C9.47211 23.8996 10.4935 24.9071 11.7844 25.0719C15.9113 25.5991 20.0885 25.5991 24.2154 25.0719C25.5063 24.9071 26.5277 23.8996 26.7103 22.6111L27.386 17.8422C27.4732 17.227 28.0426 16.799 28.6577 16.8861C29.2729 16.9733 29.7009 17.5427 29.6138 18.1578L28.938 22.9268C28.6133 25.2186 26.7966 27.0105 24.5005 27.3038C22.7152 27.5319 20.9208 27.6656 19.1249 27.705V33.75C19.1249 34.3713 18.6213 34.875 17.9999 34.875C17.3786 34.875 16.8749 34.3713 16.8749 33.75V27.705C15.079 27.6656 13.2846 27.5319 11.4993 27.3038C9.20323 27.0105 7.38654 25.2186 7.06179 22.9268L6.38602 18.1578C6.29885 17.5427 6.72689 16.9733 7.34206 16.8861Z" fill="black"/>
</svg>
